<mxfile host="www.draw.io" modified="2020-03-03T03:08:11.551Z" agent="Mozilla/5.0 (Windows NT 10.0; Win64; x64) AppleWebKit/537.36 (KHTML, like Gecko) Chrome/80.0.3987.122 Safari/537.36" etag="YiYJRvrH0l3ugj3oC5Kb" version="12.7.9" type="github" pages="3">
  <diagram id="aovmOdOLRYO-H6AUeAWv" name="第 1 页">
    <mxGraphModel dx="868" dy="450" grid="1" gridSize="10" guides="1" tooltips="1" connect="1" arrows="1" fold="1" page="1" pageScale="1" pageWidth="827" pageHeight="1169" math="0" shadow="0">
      <root>
        <mxCell id="0" />
        <mxCell id="1" parent="0" />
        <mxCell id="feSpY53d5lP3LF23KyKH-11" value="" style="edgeStyle=orthogonalEdgeStyle;rounded=0;orthogonalLoop=1;jettySize=auto;html=1;" parent="1" source="feSpY53d5lP3LF23KyKH-1" target="feSpY53d5lP3LF23KyKH-10" edge="1">
          <mxGeometry relative="1" as="geometry" />
        </mxCell>
        <mxCell id="feSpY53d5lP3LF23KyKH-1" value="通知" style="rounded=0;whiteSpace=wrap;html=1;" parent="1" vertex="1">
          <mxGeometry x="180" y="110" width="120" height="60" as="geometry" />
        </mxCell>
        <mxCell id="feSpY53d5lP3LF23KyKH-10" value="预知" style="rounded=0;whiteSpace=wrap;html=1;" parent="1" vertex="1">
          <mxGeometry x="180" y="10" width="120" height="60" as="geometry" />
        </mxCell>
        <mxCell id="feSpY53d5lP3LF23KyKH-9" value="" style="edgeStyle=orthogonalEdgeStyle;rounded=0;orthogonalLoop=1;jettySize=auto;html=1;" parent="1" source="feSpY53d5lP3LF23KyKH-2" target="feSpY53d5lP3LF23KyKH-1" edge="1">
          <mxGeometry relative="1" as="geometry" />
        </mxCell>
        <mxCell id="feSpY53d5lP3LF23KyKH-2" value="组织" style="rounded=0;whiteSpace=wrap;html=1;" parent="1" vertex="1">
          <mxGeometry x="180" y="220" width="120" height="60" as="geometry" />
        </mxCell>
        <mxCell id="feSpY53d5lP3LF23KyKH-7" value="" style="edgeStyle=orthogonalEdgeStyle;rounded=0;orthogonalLoop=1;jettySize=auto;html=1;" parent="1" source="feSpY53d5lP3LF23KyKH-5" target="feSpY53d5lP3LF23KyKH-6" edge="1">
          <mxGeometry relative="1" as="geometry" />
        </mxCell>
        <mxCell id="feSpY53d5lP3LF23KyKH-5" value="感知" style="rounded=0;whiteSpace=wrap;html=1;" parent="1" vertex="1">
          <mxGeometry x="180" y="430" width="120" height="60" as="geometry" />
        </mxCell>
        <mxCell id="feSpY53d5lP3LF23KyKH-8" value="" style="edgeStyle=orthogonalEdgeStyle;rounded=0;orthogonalLoop=1;jettySize=auto;html=1;" parent="1" source="feSpY53d5lP3LF23KyKH-6" target="feSpY53d5lP3LF23KyKH-2" edge="1">
          <mxGeometry relative="1" as="geometry" />
        </mxCell>
        <mxCell id="feSpY53d5lP3LF23KyKH-6" value="认知" style="rounded=0;whiteSpace=wrap;html=1;" parent="1" vertex="1">
          <mxGeometry x="180" y="330" width="120" height="60" as="geometry" />
        </mxCell>
        <mxCell id="feSpY53d5lP3LF23KyKH-12" value="“五zhi”&lt;span style=&quot;font-weight: normal&quot;&gt;模型&lt;/span&gt;" style="text;html=1;strokeColor=none;fillColor=none;align=center;verticalAlign=middle;whiteSpace=wrap;rounded=0;strokeWidth=5;fontSize=21;fontStyle=1" parent="1" vertex="1">
          <mxGeometry x="20" y="10" width="150" height="60" as="geometry" />
        </mxCell>
        <mxCell id="feSpY53d5lP3LF23KyKH-15" value="" style="rounded=0;whiteSpace=wrap;html=1;strokeWidth=1;fontSize=21;" parent="1" vertex="1">
          <mxGeometry x="310" y="110" width="400" height="170" as="geometry" />
        </mxCell>
        <mxCell id="feSpY53d5lP3LF23KyKH-17" value="工作台" style="text;html=1;strokeColor=none;fillColor=none;align=center;verticalAlign=middle;whiteSpace=wrap;rounded=0;fontSize=20;" parent="1" vertex="1">
          <mxGeometry x="405" y="170" width="210" height="50" as="geometry" />
        </mxCell>
        <mxCell id="feSpY53d5lP3LF23KyKH-18" value="&lt;font style=&quot;font-size: 20px&quot;&gt;数据平台&lt;/font&gt;" style="rounded=0;whiteSpace=wrap;html=1;" parent="1" vertex="1">
          <mxGeometry x="310" y="10" width="400" height="60" as="geometry" />
        </mxCell>
        <mxCell id="feSpY53d5lP3LF23KyKH-19" value="端" style="rounded=0;whiteSpace=wrap;html=1;strokeWidth=1;fontSize=21;" parent="1" vertex="1">
          <mxGeometry x="310" y="430" width="400" height="60" as="geometry" />
        </mxCell>
        <mxCell id="feSpY53d5lP3LF23KyKH-20" value="认知平台" style="rounded=0;whiteSpace=wrap;html=1;strokeWidth=1;fontSize=21;" parent="1" vertex="1">
          <mxGeometry x="310" y="330" width="400" height="60" as="geometry" />
        </mxCell>
      </root>
    </mxGraphModel>
  </diagram>
  <diagram id="u2iHU0A4b3PRKRzUDILL" name="第 2 页">
    <mxGraphModel dx="868" dy="450" grid="1" gridSize="10" guides="1" tooltips="1" connect="1" arrows="1" fold="1" page="1" pageScale="1" pageWidth="827" pageHeight="1169" math="0" shadow="0">
      <root>
        <mxCell id="I_IMokg_o9VOh2cPBBRf-0" />
        <mxCell id="I_IMokg_o9VOh2cPBBRf-1" parent="I_IMokg_o9VOh2cPBBRf-0" />
        <mxCell id="I_IMokg_o9VOh2cPBBRf-4" value="" style="edgeStyle=orthogonalEdgeStyle;rounded=0;orthogonalLoop=1;jettySize=auto;html=1;fontSize=20;" parent="I_IMokg_o9VOh2cPBBRf-1" source="I_IMokg_o9VOh2cPBBRf-2" target="I_IMokg_o9VOh2cPBBRf-3" edge="1">
          <mxGeometry relative="1" as="geometry" />
        </mxCell>
        <mxCell id="I_IMokg_o9VOh2cPBBRf-2" value="感知" style="rounded=0;whiteSpace=wrap;html=1;strokeWidth=1;fontSize=20;" parent="I_IMokg_o9VOh2cPBBRf-1" vertex="1">
          <mxGeometry x="40" y="170" width="120" height="60" as="geometry" />
        </mxCell>
        <mxCell id="I_IMokg_o9VOh2cPBBRf-6" value="" style="edgeStyle=orthogonalEdgeStyle;rounded=0;orthogonalLoop=1;jettySize=auto;html=1;fontSize=20;" parent="I_IMokg_o9VOh2cPBBRf-1" source="I_IMokg_o9VOh2cPBBRf-3" target="I_IMokg_o9VOh2cPBBRf-5" edge="1">
          <mxGeometry relative="1" as="geometry" />
        </mxCell>
        <mxCell id="I_IMokg_o9VOh2cPBBRf-3" value="捕获" style="rounded=0;whiteSpace=wrap;html=1;strokeWidth=1;fontSize=20;" parent="I_IMokg_o9VOh2cPBBRf-1" vertex="1">
          <mxGeometry x="240" y="170" width="120" height="60" as="geometry" />
        </mxCell>
        <mxCell id="I_IMokg_o9VOh2cPBBRf-8" value="" style="edgeStyle=orthogonalEdgeStyle;rounded=0;orthogonalLoop=1;jettySize=auto;html=1;fontSize=20;entryX=0;entryY=0.5;entryDx=0;entryDy=0;" parent="I_IMokg_o9VOh2cPBBRf-1" source="I_IMokg_o9VOh2cPBBRf-5" target="I_IMokg_o9VOh2cPBBRf-12" edge="1">
          <mxGeometry relative="1" as="geometry">
            <mxPoint x="780" y="200" as="targetPoint" />
          </mxGeometry>
        </mxCell>
        <mxCell id="I_IMokg_o9VOh2cPBBRf-5" value="认知" style="rounded=0;whiteSpace=wrap;html=1;strokeWidth=1;fontSize=20;" parent="I_IMokg_o9VOh2cPBBRf-1" vertex="1">
          <mxGeometry x="507" y="170" width="120" height="60" as="geometry" />
        </mxCell>
        <mxCell id="I_IMokg_o9VOh2cPBBRf-16" value="" style="edgeStyle=orthogonalEdgeStyle;rounded=0;orthogonalLoop=1;jettySize=auto;html=1;fontSize=20;" parent="I_IMokg_o9VOh2cPBBRf-1" source="I_IMokg_o9VOh2cPBBRf-12" target="I_IMokg_o9VOh2cPBBRf-15" edge="1">
          <mxGeometry relative="1" as="geometry" />
        </mxCell>
        <mxCell id="I_IMokg_o9VOh2cPBBRf-12" value="组织" style="rounded=0;whiteSpace=wrap;html=1;strokeWidth=1;fontSize=20;" parent="I_IMokg_o9VOh2cPBBRf-1" vertex="1">
          <mxGeometry x="786" y="170" width="120" height="60" as="geometry" />
        </mxCell>
        <mxCell id="I_IMokg_o9VOh2cPBBRf-15" value="通知" style="rounded=0;whiteSpace=wrap;html=1;strokeWidth=1;fontSize=20;" parent="I_IMokg_o9VOh2cPBBRf-1" vertex="1">
          <mxGeometry x="1090" y="170" width="120" height="60" as="geometry" />
        </mxCell>
        <mxCell id="I_IMokg_o9VOh2cPBBRf-9" value="摄像头" style="rounded=0;whiteSpace=wrap;html=1;strokeWidth=1;fontSize=20;" parent="I_IMokg_o9VOh2cPBBRf-1" vertex="1">
          <mxGeometry x="40" y="20" width="120" height="60" as="geometry" />
        </mxCell>
        <mxCell id="I_IMokg_o9VOh2cPBBRf-10" value="位置、图像" style="rounded=0;whiteSpace=wrap;html=1;strokeWidth=1;fontSize=20;" parent="I_IMokg_o9VOh2cPBBRf-1" vertex="1">
          <mxGeometry x="240" y="20" width="120" height="60" as="geometry" />
        </mxCell>
        <mxCell id="I_IMokg_o9VOh2cPBBRf-11" value="检查项&lt;br&gt;1.身份合法&lt;br&gt;2.着装标准&lt;br&gt;3.行为规范" style="rounded=0;whiteSpace=wrap;html=1;strokeWidth=1;fontSize=20;" parent="I_IMokg_o9VOh2cPBBRf-1" vertex="1">
          <mxGeometry x="410" y="20" width="290" height="100" as="geometry" />
        </mxCell>
        <mxCell id="I_IMokg_o9VOh2cPBBRf-14" value="整改&lt;br&gt;1.告知责任人&lt;br&gt;2.形成待办&lt;br&gt;3.完善和优化规程" style="rounded=0;whiteSpace=wrap;html=1;strokeWidth=1;fontSize=20;" parent="I_IMokg_o9VOh2cPBBRf-1" vertex="1">
          <mxGeometry x="720" y="20" width="290" height="100" as="geometry" />
        </mxCell>
        <mxCell id="I_IMokg_o9VOh2cPBBRf-17" value="监控、示险" style="rounded=0;whiteSpace=wrap;html=1;strokeWidth=1;fontSize=20;" parent="I_IMokg_o9VOh2cPBBRf-1" vertex="1">
          <mxGeometry x="1050" y="20" width="240" height="60" as="geometry" />
        </mxCell>
      </root>
    </mxGraphModel>
  </diagram>
  <diagram id="wVwKIN0H2Deiawcz-mv9" name="第 3 页">
    <mxGraphModel dx="868" dy="1619" grid="1" gridSize="10" guides="1" tooltips="1" connect="1" arrows="1" fold="1" page="1" pageScale="1" pageWidth="827" pageHeight="1169" math="0" shadow="0">
      <root>
        <mxCell id="IBBTN6dMV4PXEjPxAF1v-0" />
        <mxCell id="IBBTN6dMV4PXEjPxAF1v-1" parent="IBBTN6dMV4PXEjPxAF1v-0" />
        <mxCell id="IBBTN6dMV4PXEjPxAF1v-4" value="" style="edgeStyle=orthogonalEdgeStyle;rounded=0;orthogonalLoop=1;jettySize=auto;html=1;fontSize=20;" parent="IBBTN6dMV4PXEjPxAF1v-1" source="IBBTN6dMV4PXEjPxAF1v-2" target="IBBTN6dMV4PXEjPxAF1v-3" edge="1">
          <mxGeometry relative="1" as="geometry" />
        </mxCell>
        <mxCell id="IBBTN6dMV4PXEjPxAF1v-2" value="感知" style="rounded=0;whiteSpace=wrap;html=1;strokeWidth=1;fontSize=20;" parent="IBBTN6dMV4PXEjPxAF1v-1" vertex="1">
          <mxGeometry x="64" y="-460" width="120" height="60" as="geometry" />
        </mxCell>
        <mxCell id="IBBTN6dMV4PXEjPxAF1v-6" value="" style="edgeStyle=orthogonalEdgeStyle;rounded=0;orthogonalLoop=1;jettySize=auto;html=1;fontSize=20;" parent="IBBTN6dMV4PXEjPxAF1v-1" source="IBBTN6dMV4PXEjPxAF1v-3" target="IBBTN6dMV4PXEjPxAF1v-5" edge="1">
          <mxGeometry relative="1" as="geometry" />
        </mxCell>
        <mxCell id="IBBTN6dMV4PXEjPxAF1v-3" value="捕获" style="rounded=0;whiteSpace=wrap;html=1;strokeWidth=1;fontSize=20;" parent="IBBTN6dMV4PXEjPxAF1v-1" vertex="1">
          <mxGeometry x="64" y="-600" width="120" height="60" as="geometry" />
        </mxCell>
        <mxCell id="IBBTN6dMV4PXEjPxAF1v-8" value="" style="edgeStyle=orthogonalEdgeStyle;rounded=0;orthogonalLoop=1;jettySize=auto;html=1;fontSize=20;" parent="IBBTN6dMV4PXEjPxAF1v-1" source="IBBTN6dMV4PXEjPxAF1v-5" target="IBBTN6dMV4PXEjPxAF1v-7" edge="1">
          <mxGeometry relative="1" as="geometry" />
        </mxCell>
        <mxCell id="IBBTN6dMV4PXEjPxAF1v-5" value="认知" style="rounded=0;whiteSpace=wrap;html=1;strokeWidth=1;fontSize=20;" parent="IBBTN6dMV4PXEjPxAF1v-1" vertex="1">
          <mxGeometry x="64" y="-740" width="120" height="60" as="geometry" />
        </mxCell>
        <mxCell id="IBBTN6dMV4PXEjPxAF1v-10" value="" style="edgeStyle=orthogonalEdgeStyle;rounded=0;orthogonalLoop=1;jettySize=auto;html=1;fontSize=20;" parent="IBBTN6dMV4PXEjPxAF1v-1" source="IBBTN6dMV4PXEjPxAF1v-7" target="IBBTN6dMV4PXEjPxAF1v-9" edge="1">
          <mxGeometry relative="1" as="geometry" />
        </mxCell>
        <mxCell id="IBBTN6dMV4PXEjPxAF1v-7" value="知识激活" style="rounded=0;whiteSpace=wrap;html=1;strokeWidth=1;fontSize=20;" parent="IBBTN6dMV4PXEjPxAF1v-1" vertex="1">
          <mxGeometry x="64" y="-880" width="120" height="60" as="geometry" />
        </mxCell>
        <mxCell id="IBBTN6dMV4PXEjPxAF1v-12" value="" style="edgeStyle=orthogonalEdgeStyle;rounded=0;orthogonalLoop=1;jettySize=auto;html=1;fontSize=20;" parent="IBBTN6dMV4PXEjPxAF1v-1" source="IBBTN6dMV4PXEjPxAF1v-9" target="IBBTN6dMV4PXEjPxAF1v-11" edge="1">
          <mxGeometry relative="1" as="geometry" />
        </mxCell>
        <mxCell id="IBBTN6dMV4PXEjPxAF1v-9" value="作业交互" style="rounded=0;whiteSpace=wrap;html=1;strokeWidth=1;fontSize=20;" parent="IBBTN6dMV4PXEjPxAF1v-1" vertex="1">
          <mxGeometry x="64" y="-1020" width="120" height="60" as="geometry" />
        </mxCell>
        <mxCell id="IBBTN6dMV4PXEjPxAF1v-11" value="分析管理" style="rounded=0;whiteSpace=wrap;html=1;strokeWidth=1;fontSize=20;" parent="IBBTN6dMV4PXEjPxAF1v-1" vertex="1">
          <mxGeometry x="64" y="-1160" width="120" height="60" as="geometry" />
        </mxCell>
        <mxCell id="IBBTN6dMV4PXEjPxAF1v-13" value="" style="rounded=0;whiteSpace=wrap;html=1;strokeWidth=1;fontSize=20;" parent="IBBTN6dMV4PXEjPxAF1v-1" vertex="1">
          <mxGeometry x="204" y="-460" width="560" height="60" as="geometry" />
        </mxCell>
        <mxCell id="IBBTN6dMV4PXEjPxAF1v-14" value="摄像头监测" style="rounded=1;whiteSpace=wrap;html=1;strokeWidth=1;fontSize=16;labelBackgroundColor=none;fillColor=#ffe6cc;strokeColor=#d79b00;" parent="IBBTN6dMV4PXEjPxAF1v-1" vertex="1">
          <mxGeometry x="224" y="-450" width="90" height="40" as="geometry" />
        </mxCell>
        <mxCell id="IBBTN6dMV4PXEjPxAF1v-15" value="红外温度&lt;br&gt;监测" style="rounded=1;whiteSpace=wrap;html=1;strokeWidth=1;fontSize=16;labelBackgroundColor=none;fillColor=#ffe6cc;strokeColor=#d79b00;" parent="IBBTN6dMV4PXEjPxAF1v-1" vertex="1">
          <mxGeometry x="334" y="-450" width="90" height="40" as="geometry" />
        </mxCell>
        <mxCell id="IBBTN6dMV4PXEjPxAF1v-17" value="动设备震动监测" style="rounded=1;whiteSpace=wrap;html=1;strokeWidth=1;fontSize=16;labelBackgroundColor=none;fillColor=#ffe6cc;strokeColor=#d79b00;" parent="IBBTN6dMV4PXEjPxAF1v-1" vertex="1">
          <mxGeometry x="446" y="-450" width="90" height="40" as="geometry" />
        </mxCell>
        <mxCell id="IBBTN6dMV4PXEjPxAF1v-20" value="GPS定位" style="rounded=1;whiteSpace=wrap;html=1;strokeWidth=1;fontSize=16;labelBackgroundColor=none;fillColor=#ffe6cc;strokeColor=#d79b00;" parent="IBBTN6dMV4PXEjPxAF1v-1" vertex="1">
          <mxGeometry x="559" y="-450" width="90" height="40" as="geometry" />
        </mxCell>
        <mxCell id="IBBTN6dMV4PXEjPxAF1v-24" value="" style="rounded=0;whiteSpace=wrap;html=1;strokeWidth=1;fontSize=20;" parent="IBBTN6dMV4PXEjPxAF1v-1" vertex="1">
          <mxGeometry x="204" y="-600" width="560" height="60" as="geometry" />
        </mxCell>
        <mxCell id="IBBTN6dMV4PXEjPxAF1v-25" value="人行为数据" style="rounded=1;whiteSpace=wrap;html=1;strokeWidth=1;fontSize=16;labelBackgroundColor=none;fillColor=#ffe6cc;strokeColor=#d79b00;" parent="IBBTN6dMV4PXEjPxAF1v-1" vertex="1">
          <mxGeometry x="224" y="-590" width="90" height="40" as="geometry" />
        </mxCell>
        <mxCell id="IBBTN6dMV4PXEjPxAF1v-26" value="异常温度" style="rounded=1;whiteSpace=wrap;html=1;strokeWidth=1;fontSize=16;labelBackgroundColor=none;fillColor=#ffe6cc;strokeColor=#d79b00;" parent="IBBTN6dMV4PXEjPxAF1v-1" vertex="1">
          <mxGeometry x="334" y="-590" width="90" height="40" as="geometry" />
        </mxCell>
        <mxCell id="IBBTN6dMV4PXEjPxAF1v-27" value="非规律震动" style="rounded=1;whiteSpace=wrap;html=1;strokeWidth=1;fontSize=16;labelBackgroundColor=none;fillColor=#ffe6cc;strokeColor=#d79b00;" parent="IBBTN6dMV4PXEjPxAF1v-1" vertex="1">
          <mxGeometry x="446" y="-590" width="90" height="40" as="geometry" />
        </mxCell>
        <mxCell id="IBBTN6dMV4PXEjPxAF1v-30" value="" style="rounded=0;whiteSpace=wrap;html=1;strokeWidth=1;fontSize=20;" parent="IBBTN6dMV4PXEjPxAF1v-1" vertex="1">
          <mxGeometry x="204" y="-950" width="686" height="180" as="geometry" />
        </mxCell>
        <mxCell id="IBBTN6dMV4PXEjPxAF1v-31" value="登高作业" style="rounded=1;whiteSpace=wrap;html=1;strokeWidth=1;fontSize=16;labelBackgroundColor=none;fillColor=#ffe6cc;strokeColor=#d79b00;" parent="IBBTN6dMV4PXEjPxAF1v-1" vertex="1">
          <mxGeometry x="214" y="-740" width="90" height="40" as="geometry" />
        </mxCell>
        <mxCell id="IBBTN6dMV4PXEjPxAF1v-32" value="密闭作业" style="rounded=1;whiteSpace=wrap;html=1;strokeWidth=1;fontSize=16;labelBackgroundColor=none;fillColor=#ffe6cc;strokeColor=#d79b00;" parent="IBBTN6dMV4PXEjPxAF1v-1" vertex="1">
          <mxGeometry x="324" y="-740" width="90" height="40" as="geometry" />
        </mxCell>
        <mxCell id="IBBTN6dMV4PXEjPxAF1v-33" value="起吊作业" style="rounded=1;whiteSpace=wrap;html=1;strokeWidth=1;fontSize=16;labelBackgroundColor=none;fillColor=#ffe6cc;strokeColor=#d79b00;" parent="IBBTN6dMV4PXEjPxAF1v-1" vertex="1">
          <mxGeometry x="433" y="-740" width="90" height="40" as="geometry" />
        </mxCell>
        <mxCell id="IBBTN6dMV4PXEjPxAF1v-34" value="聚众" style="rounded=1;whiteSpace=wrap;html=1;strokeWidth=1;fontSize=16;labelBackgroundColor=none;fillColor=#ffe6cc;strokeColor=#d79b00;" parent="IBBTN6dMV4PXEjPxAF1v-1" vertex="1">
          <mxGeometry x="541" y="-740" width="90" height="40" as="geometry" />
        </mxCell>
        <mxCell id="IBBTN6dMV4PXEjPxAF1v-35" value="身份核实" style="rounded=1;whiteSpace=wrap;html=1;strokeWidth=1;fontSize=16;labelBackgroundColor=none;fillColor=#ffe6cc;strokeColor=#d79b00;" parent="IBBTN6dMV4PXEjPxAF1v-1" vertex="1">
          <mxGeometry x="651" y="-740" width="90" height="40" as="geometry" />
        </mxCell>
        <mxCell id="IBBTN6dMV4PXEjPxAF1v-36" value="" style="rounded=0;whiteSpace=wrap;html=1;strokeWidth=1;fontSize=20;" parent="IBBTN6dMV4PXEjPxAF1v-1" vertex="1">
          <mxGeometry x="204" y="-1020" width="560" height="60" as="geometry" />
        </mxCell>
        <mxCell id="IBBTN6dMV4PXEjPxAF1v-37" value="待办任务" style="rounded=1;whiteSpace=wrap;html=1;strokeWidth=1;fontSize=16;labelBackgroundColor=none;fillColor=#ffe6cc;strokeColor=#d79b00;" parent="IBBTN6dMV4PXEjPxAF1v-1" vertex="1">
          <mxGeometry x="224" y="-1010" width="90" height="40" as="geometry" />
        </mxCell>
        <mxCell id="IBBTN6dMV4PXEjPxAF1v-38" value="消息" style="rounded=1;whiteSpace=wrap;html=1;strokeWidth=1;fontSize=16;labelBackgroundColor=none;fillColor=#ffe6cc;strokeColor=#d79b00;" parent="IBBTN6dMV4PXEjPxAF1v-1" vertex="1">
          <mxGeometry x="334" y="-1010" width="90" height="40" as="geometry" />
        </mxCell>
        <mxCell id="IBBTN6dMV4PXEjPxAF1v-39" value="作业规程" style="rounded=1;whiteSpace=wrap;html=1;strokeWidth=1;fontSize=16;labelBackgroundColor=none;fillColor=#ffe6cc;strokeColor=#d79b00;" parent="IBBTN6dMV4PXEjPxAF1v-1" vertex="1">
          <mxGeometry x="560" y="-1010" width="90" height="40" as="geometry" />
        </mxCell>
        <mxCell id="IBBTN6dMV4PXEjPxAF1v-40" value="微应用" style="rounded=1;whiteSpace=wrap;html=1;strokeWidth=1;fontSize=16;labelBackgroundColor=none;fillColor=#ffe6cc;strokeColor=#d79b00;" parent="IBBTN6dMV4PXEjPxAF1v-1" vertex="1">
          <mxGeometry x="447" y="-1010" width="90" height="40" as="geometry" />
        </mxCell>
        <mxCell id="IBBTN6dMV4PXEjPxAF1v-42" value="" style="rounded=0;whiteSpace=wrap;html=1;strokeWidth=1;fontSize=20;" parent="IBBTN6dMV4PXEjPxAF1v-1" vertex="1">
          <mxGeometry x="204" y="-740" width="560" height="60" as="geometry" />
        </mxCell>
        <mxCell id="IBBTN6dMV4PXEjPxAF1v-43" value="登高作业" style="rounded=1;whiteSpace=wrap;html=1;strokeWidth=1;fontSize=16;labelBackgroundColor=none;fillColor=#ffe6cc;strokeColor=#d79b00;" parent="IBBTN6dMV4PXEjPxAF1v-1" vertex="1">
          <mxGeometry x="224" y="-730" width="90" height="40" as="geometry" />
        </mxCell>
        <mxCell id="IBBTN6dMV4PXEjPxAF1v-44" value="密闭作业" style="rounded=1;whiteSpace=wrap;html=1;strokeWidth=1;fontSize=16;labelBackgroundColor=none;fillColor=#ffe6cc;strokeColor=#d79b00;" parent="IBBTN6dMV4PXEjPxAF1v-1" vertex="1">
          <mxGeometry x="334" y="-730" width="90" height="40" as="geometry" />
        </mxCell>
        <mxCell id="IBBTN6dMV4PXEjPxAF1v-45" value="起吊作业" style="rounded=1;whiteSpace=wrap;html=1;strokeWidth=1;fontSize=16;labelBackgroundColor=none;fillColor=#ffe6cc;strokeColor=#d79b00;" parent="IBBTN6dMV4PXEjPxAF1v-1" vertex="1">
          <mxGeometry x="443" y="-730" width="90" height="40" as="geometry" />
        </mxCell>
        <mxCell id="IBBTN6dMV4PXEjPxAF1v-46" value="聚众" style="rounded=1;whiteSpace=wrap;html=1;strokeWidth=1;fontSize=16;labelBackgroundColor=none;fillColor=#ffe6cc;strokeColor=#d79b00;" parent="IBBTN6dMV4PXEjPxAF1v-1" vertex="1">
          <mxGeometry x="551" y="-730" width="90" height="40" as="geometry" />
        </mxCell>
        <mxCell id="IBBTN6dMV4PXEjPxAF1v-47" value="身份核实" style="rounded=1;whiteSpace=wrap;html=1;strokeWidth=1;fontSize=16;labelBackgroundColor=none;fillColor=#ffe6cc;strokeColor=#d79b00;" parent="IBBTN6dMV4PXEjPxAF1v-1" vertex="1">
          <mxGeometry x="661" y="-730" width="90" height="40" as="geometry" />
        </mxCell>
        <mxCell id="IBBTN6dMV4PXEjPxAF1v-49" value="个人尽责" style="rounded=1;whiteSpace=wrap;html=1;strokeWidth=1;fontSize=16;labelBackgroundColor=none;fillColor=#ffe6cc;strokeColor=#d79b00;" parent="IBBTN6dMV4PXEjPxAF1v-1" vertex="1">
          <mxGeometry x="930" y="-1090" width="90" height="40" as="geometry" />
        </mxCell>
        <mxCell id="IBBTN6dMV4PXEjPxAF1v-50" value="作业规程" style="rounded=1;whiteSpace=wrap;html=1;strokeWidth=1;fontSize=16;labelBackgroundColor=none;fillColor=#ffe6cc;strokeColor=#d79b00;" parent="IBBTN6dMV4PXEjPxAF1v-1" vertex="1">
          <mxGeometry x="932" y="-1040" width="90" height="40" as="geometry" />
        </mxCell>
        <mxCell id="IBBTN6dMV4PXEjPxAF1v-51" value="" style="rounded=0;whiteSpace=wrap;html=1;strokeWidth=1;fontSize=20;" parent="IBBTN6dMV4PXEjPxAF1v-1" vertex="1">
          <mxGeometry x="204" y="-1160" width="560" height="60" as="geometry" />
        </mxCell>
        <mxCell id="IBBTN6dMV4PXEjPxAF1v-52" value="时效分析" style="rounded=1;whiteSpace=wrap;html=1;strokeWidth=1;fontSize=16;labelBackgroundColor=none;fillColor=#ffe6cc;strokeColor=#d79b00;" parent="IBBTN6dMV4PXEjPxAF1v-1" vertex="1">
          <mxGeometry x="224" y="-1150" width="90" height="40" as="geometry" />
        </mxCell>
        <mxCell id="IBBTN6dMV4PXEjPxAF1v-53" value="示险" style="rounded=1;whiteSpace=wrap;html=1;strokeWidth=1;fontSize=16;labelBackgroundColor=none;fillColor=#ffe6cc;strokeColor=#d79b00;" parent="IBBTN6dMV4PXEjPxAF1v-1" vertex="1">
          <mxGeometry x="334" y="-1150" width="90" height="40" as="geometry" />
        </mxCell>
        <mxCell id="zWHGUlIVLa83p9jTj2lA-0" value="" style="rounded=0;whiteSpace=wrap;html=1;fillColor=#FFE6CC;opacity=50;" vertex="1" parent="IBBTN6dMV4PXEjPxAF1v-1">
          <mxGeometry x="204" y="-940" width="216" height="160" as="geometry" />
        </mxCell>
        <mxCell id="zWHGUlIVLa83p9jTj2lA-1" value="事件协同类" style="text;html=1;strokeColor=none;fillColor=none;align=center;verticalAlign=middle;whiteSpace=wrap;rounded=0;opacity=50;" vertex="1" parent="IBBTN6dMV4PXEjPxAF1v-1">
          <mxGeometry x="281" y="-800" width="62" height="20" as="geometry" />
        </mxCell>
        <mxCell id="zWHGUlIVLa83p9jTj2lA-2" value="" style="rounded=0;whiteSpace=wrap;html=1;fillColor=#FFE6CC;opacity=50;" vertex="1" parent="IBBTN6dMV4PXEjPxAF1v-1">
          <mxGeometry x="424" y="-940" width="216" height="160" as="geometry" />
        </mxCell>
        <mxCell id="zWHGUlIVLa83p9jTj2lA-3" value="个人尽责类" style="text;html=1;strokeColor=none;fillColor=none;align=center;verticalAlign=middle;whiteSpace=wrap;rounded=0;opacity=50;" vertex="1" parent="IBBTN6dMV4PXEjPxAF1v-1">
          <mxGeometry x="494" y="-800" width="69" height="20" as="geometry" />
        </mxCell>
        <mxCell id="zWHGUlIVLa83p9jTj2lA-4" value="" style="rounded=0;whiteSpace=wrap;html=1;fillColor=#FFE6CC;opacity=50;" vertex="1" parent="IBBTN6dMV4PXEjPxAF1v-1">
          <mxGeometry x="644" y="-940" width="216" height="160" as="geometry" />
        </mxCell>
        <mxCell id="zWHGUlIVLa83p9jTj2lA-5" value="作业规程" style="text;html=1;strokeColor=none;fillColor=none;align=center;verticalAlign=middle;whiteSpace=wrap;rounded=0;opacity=50;" vertex="1" parent="IBBTN6dMV4PXEjPxAF1v-1">
          <mxGeometry x="720" y="-800" width="69" height="20" as="geometry" />
        </mxCell>
      </root>
    </mxGraphModel>
  </diagram>
</mxfile>
